<?xml version="1.0" encoding="utf-8"?>
<!-- Generator: Adobe Illustrator 19.1.0, SVG Export Plug-In . SVG Version: 6.00 Build 0)  -->
<svg version="1.1" id="Capa_1" xmlns="http://www.w3.org/2000/svg" xmlns:xlink="http://www.w3.org/1999/xlink" x="0px" y="0px"
	 viewBox="0 0 283.5 283.5" style="enable-background:new 0 0 283.5 283.5;" xml:space="preserve">
<style type="text/css">
	.st0{clip-path:url(#SVGID_2_);}
	.st1{opacity:0.4;clip-path:url(#SVGID_4_);}
	.st2{clip-path:url(#SVGID_6_);fill:#FFFFFF;}
	.st3{clip-path:url(#SVGID_4_);fill:#FFFFFF;}
	.st4{clip-path:url(#SVGID_2_);fill:#FFFFFF;}
	.st5{clip-path:url(#SVGID_8_);fill:none;stroke:#FFFFFF;stroke-width:3.265;}
	.st6{clip-path:url(#SVGID_8_);fill:#FFFFFF;}
</style>
<g>
	<defs>
		<rect id="SVGID_1_" x="7.2" y="8.3" width="271.4" height="272.4"/>
	</defs>
	<clipPath id="SVGID_2_">
		<use xlink:href="#SVGID_1_"  style="overflow:visible;"/>
	</clipPath>
	<g class="st0">
		<defs>
			<rect id="SVGID_3_" x="7.2" y="8.3" width="271.4" height="272.4"/>
		</defs>
		<clipPath id="SVGID_4_">
			<use xlink:href="#SVGID_3_"  style="overflow:visible;"/>
		</clipPath>
		<g class="st1">
			<g>
				<defs>
					<rect id="SVGID_5_" x="-1.8" y="1.3" width="289.4" height="280.4"/>
				</defs>
				<clipPath id="SVGID_6_">
					<use xlink:href="#SVGID_5_"  style="overflow:visible;"/>
				</clipPath>
				<rect x="7.2" y="8.3" class="st2" width="271.4" height="272.4"/>
			</g>
		</g>
		<path class="st3" d="M196.9,88.5c-0.2,0.5-0.8,3-1.9,7.5c-1,4.4-1.9,8-2.7,10.8c-0.7,2.8-1.2,4.7-1.5,5.9c-0.1,0.7,0,1.3,0.4,1.9
			c0.4,0.6,0.8,0.8,1.3,0.8c1,0,1.9-1,2.6-3c4-12.5,5.9-19.9,5.9-22.2c0-0.8-0.3-1.6-0.9-2.4c-0.6-0.8-1.2-1.2-1.9-1.2
			C197.8,86.7,197.3,87.3,196.9,88.5 M203.6,77.5c-0.9-1.5-1.6-2.3-2.2-2.3s-1.2,0.3-1.8,1c-0.6,0.7-0.9,1.4-0.9,2.1
			s0.6,1.7,1.7,2.8c1.1,1.1,2.1,1.6,3,1.6c0.3,0,0.7-0.1,1-0.4s0.5-0.6,0.5-1C204.9,80.3,204.4,79,203.6,77.5 M183.6,96.9
			c-0.5,0.2-0.8,0.5-1,1.1c-1.2,3.8-3.2,6.9-5.9,9.3c-2.7,2.4-5.1,3.6-7.2,3.5c-0.7,0-1.3-0.3-1.8-0.7c-0.5-0.4-0.7-1-0.7-1.7
			c0-1.7,0.8-3.9,2.3-6.6c1.5-2.7,3.4-5.2,5.5-7.4c2.2-2.2,4.1-3.3,5.7-3.3c1,0,1.7,0.5,2.3,1.5c0.5,1,0.8,2.3,0.8,3.9V96.9z
			 M185.2,89.1c-1.6-1.6-3.4-2.4-5.2-2.4c-2.4,0-5.1,1.3-7.9,4c-2.8,2.6-5.1,5.7-6.9,9.1c-1.8,3.4-2.7,6.3-2.7,8.7
			c0,1.7,0.8,3.3,2.3,4.7c1.6,1.5,3.2,2.2,4.9,2.2c1.7,0,3.5-0.6,5.5-1.9c2-1.3,3.8-2.9,5.4-4.9c0.2,4.5,1,6.8,2.4,6.8
			c0.7,0,1.1-0.5,1.2-1.4c0.1-0.5,0.1-1,0.2-1.5c0.1-0.5,0.1-1.1,0.2-1.9c0.1-0.8,0.2-1.7,0.4-2.7c0.2-1,0.6-2.5,1.1-4.4
			c0.5-1.9,0.8-3.1,0.8-3.6c0-0.5-0.2-1-0.6-1.6c0.9-1.6,1.4-2.9,1.4-4.1C187.7,92.4,186.9,90.7,185.2,89.1 M139.2,111l1.3-5.6
			l0.1,0.1c1.6-4.1,3.6-7.5,6.3-10.2c2.6-2.7,4.7-4,6.3-4c1.6,0,2.3,1.7,2.3,5.2c0,3.5-1.8,6.8-5.3,9.9c-3.5,3.1-6.9,4.7-10.2,4.7
			C139.6,111,139.3,111,139.2,111 M135.6,126c0.2-0.7,0.5-1.7,0.7-2.8c0.3-1.1,0.5-2.1,0.7-2.9c0.2-0.8,0.4-1.7,0.6-2.9
			c0.3-1.1,0.4-2,0.6-2.4V115c0.7,0.2,1.5,0.3,2.4,0.3c2.6,0,5.4-1,8.5-2.9c3.1-1.9,5.7-4.4,7.9-7.3c2.2-3,3.3-5.8,3.3-8.4
			c0-2.6-0.6-5-1.8-7.1c-1.2-2.1-2.6-3.1-4.3-3.1c-3.7,0-7.3,2.4-10.8,7.3c0.3-1.2,0.4-2.2,0.4-2.7c0-1.3-0.5-2.4-1.4-3.3
			c-0.9-0.9-1.6-1.4-2.1-1.4c-0.5,0-0.8,0.1-1,0.3c-0.2,0.2-0.4,0.7-0.4,1.5c-0.4,6.9-2.3,17.3-5.8,31.2c-1.1,4.4-1.7,7-1.7,7.7
			c0,0.7,0.3,1.5,0.8,2.2c0.6,0.8,1,1.2,1.4,1.2c0.3,0,0.6-0.2,0.8-0.6c0.2-0.4,0.4-0.9,0.7-1.6C135.1,127.5,135.4,126.7,135.6,126
			 M126.3,86.7c-2.1,0-4.8,1.1-8,3.3c-3.2,2.2-4.8,4.3-4.8,6.4c0,1.2,0.6,2.3,1.7,3.4c1.1,1.1,2.4,2.1,3.7,2.8
			c1.4,0.8,2.6,1.6,3.7,2.7c1.1,1,1.7,2,1.7,2.9c0,0.9-0.5,1.7-1.5,2.2c-1,0.6-2.6,0.8-4.8,0.8c-2.2,0-4.3-0.7-6.3-2
			c-1-0.7-1.7-1-2.2-1c-0.8,0-1.2,0.5-1.2,1.6c0,1.1,1.1,2.3,3.2,3.6c2.1,1.3,4.6,2,7.4,2c2.8,0,5.2-0.7,7.3-2.1
			c2.1-1.4,3.1-2.9,3.1-4.5c0-1.6-0.6-3-1.7-4.3c-1.1-1.3-2.4-2.4-3.7-3.2c-1.3-0.8-2.6-1.7-3.7-2.5c-1.1-0.9-1.7-1.6-1.7-2.2
			c0-1.2,1-2.4,3-3.6c2-1.1,3.5-1.7,4.5-1.7c1,0,1.9,0.4,2.8,1.1c0.9,0.7,1.6,1.1,2,1.1c0.6,0,0.9-0.4,0.9-1.3c0-0.8-0.6-2-1.7-3.4
			C128.8,87.4,127.6,86.7,126.3,86.7 M102.6,92.7c1,1.1,1.5,2.3,1.5,3.3c0,1.1-0.7,2-2.2,2.6c-1.4,0.6-3.2,1-5.2,1
			c-2.1,0-3.9-0.2-5.7-0.5c1.1-2.3,2.4-4.2,4-5.8c1.6-1.6,3.1-2.3,4.7-2.3C100.7,91,101.7,91.6,102.6,92.7 M105.6,89.9
			c-1.9-2.2-3.9-3.2-6.2-3.2c-2.3,0-4.6,1-6.9,3.1s-4.2,4.6-5.7,7.6c-1.5,3-2.2,5.9-2.2,8.6c0,2.7,1,5,2.9,6.8
			c1.9,1.8,4.3,2.7,7.3,2.7c2.2,0,4.5-0.6,6.8-1.8c2.3-1.2,3.5-2.3,3.5-3.3c0-0.7-0.5-1.1-1.5-1.1c-0.2,0-1.4,0.3-3.4,1
			c-2,0.7-4,1-5.9,1c-1.9,0-3.3-0.4-4.2-1.2c-0.9-0.8-1.3-1.9-1.3-3.3c0-1.4,0.3-3,0.8-4.7c2.6,0.7,5.2,1,7.9,1
			c2.7,0,5.2-0.6,7.4-1.9c2.2-1.3,3.3-3,3.3-5C108.4,94.2,107.5,92.1,105.6,89.9"/>
		<path class="st3" d="M237.3,132.3c9.6,0,17.5,8,17.5,17.7c0,9.9-7.8,17.8-17.6,17.8c-9.6,0-17.4-8-17.4-18
			C219.9,140.3,227.9,132.3,237.3,132.3 M237.3,122c-15.3,0-27.7,12.4-27.7,27.6c0,7.5,2.4,14.2,7,19.2c5.2,5.8,12.9,9.2,20.5,9.2
			c15.8,0,28-12.2,28-28.1C265.2,134.3,252.9,122,237.3,122"/>
	</g>
	<polygon class="st4" points="140.6,122.2 152.3,178.4 163.8,178.4 173.7,142.9 183.4,178.4 195,178.4 206.7,122.2 195.5,122.2 
		188.7,156.6 179.1,122.2 168.3,122.2 158.6,156.6 151.8,122.2 	"/>
	<polygon class="st4" points="29.2,122.2 29.2,178.4 39.9,178.4 39.9,162.7 51.3,149.9 68.6,178.4 80.9,178.4 58.8,141.8 
		76.1,122.2 61.9,122.2 39.9,147.1 39.9,122.2 	"/>
	<g class="st0">
		<defs>
			<rect id="SVGID_7_" x="7.2" y="8.3" width="271.4" height="272.4"/>
		</defs>
		<clipPath id="SVGID_8_">
			<use xlink:href="#SVGID_7_"  style="overflow:visible;"/>
		</clipPath>
		<circle class="st5" cx="106.8" cy="150.5" r="28.1"/>
		<path class="st6" d="M111.1,136.2c0,0,0.2-2.1-0.5-0.1l-2.4,6.5c0,0-0.7,2-1.4,0l-2.4-6.5c0,0-0.7-2-0.5,0.1l0.8,6.9
			c0,0,0.2,2.1-1.3,0.6l-5.1-4.9c0,0-1.5-1.5-0.4,0.3l3.8,5.9c0,0,1.1,1.8-0.8,1.1l-6.8-2.3c0,0-2-0.7-0.2,0.4l6.1,3.7
			c0,0,1.8,1.1-0.3,1.3l-7.2,0.8c0,0-2.1,0.2,0,0.5l7.2,0.8c0,0,2.1,0.2,0.3,1.3l-6.1,3.7c0,0-1.8,1.1,0.2,0.4l6.8-2.3
			c0,0,2-0.7,0.8,1.1l-3.8,5.9c0,0-1.1,1.8,0.4,0.3l5.1-4.9c0,0,1.5-1.5,1.3,0.6l-0.8,6.9c0,0-0.2,2.1,0.5,0.1l2.4-6.5
			c0,0,0.7-2,1.4,0l2.4,6.5c0,0,0.7,2,0.5-0.1l-0.8-6.9c0,0-0.2-2.1,1.3-0.6l5.1,4.9c0,0,1.5,1.5,0.4-0.3l-3.8-5.9
			c0,0-1.1-1.8,0.8-1.1l6.8,2.3c0,0,2,0.7,0.2-0.4l-6.1-3.7c0,0-1.8-1.1,0.3-1.3l7.2-0.8c0,0,2.1-0.2,0-0.5l-7.2-0.8
			c0,0-2.1-0.2-0.3-1.3l6.1-3.7c0,0,1.8-1.1-0.2-0.4L114,146c0,0-2,0.7-0.8-1.1l3.8-5.9c0,0,1.1-1.8-0.4-0.3l-5.1,4.9
			c0,0-1.5,1.5-1.3-0.6L111.1,136.2z"/>
		<path class="st6" d="M94.3,148.4c-0.6-0.3-1.1-1.4,0.4-1.6c1.5-0.2,2.8,1.5,2.8,1.5S94.9,148.7,94.3,148.4"/>
		<path class="st6" d="M108.4,137.4c-0.1-0.6-1.1-1.3-1.7,0.1c-0.5,1.4,0.8,2.9,0.8,2.9S108.5,138,108.4,137.4"/>
		<path class="st6" d="M114.1,139.1c0.2-0.6-0.3-1.7-1.5-0.8c-1.2,1-0.8,2.9-0.8,2.9S113.9,139.7,114.1,139.1"/>
		<path class="st6" d="M96.4,142.6c-0.4-0.5-0.3-1.7,1.1-1.2c1.4,0.5,1.8,2.5,1.8,2.5S96.8,143.1,96.4,142.6"/>
		<path class="st6" d="M100.9,139c-0.1-0.6,0.4-1.7,1.5-0.6c1.1,1.1,0.6,3,0.6,3S101,139.6,100.9,139"/>
		<path class="st6" d="M95.2,153.9c-0.6,0-1.6-0.8-0.3-1.6c1.3-0.8,3.1,0.2,3.1,0.2S95.8,154,95.2,153.9"/>
		<path class="st6" d="M101,162c-0.1,0.6,0.7,1.6,1.6,0.4c0.9-1.2,0.1-3,0.1-3S101.1,161.4,101,162"/>
		<path class="st6" d="M96.5,158.1c-0.3,0.5,0,1.7,1.3,1c1.3-0.7,1.3-2.7,1.3-2.7S96.8,157.6,96.5,158.1"/>
		<path class="st6" d="M112.7,162.2c0.5,0.4,1.7,0.3,1.2-1.1c-0.5-1.4-2.5-1.7-2.5-1.7S112.2,161.9,112.7,162.2"/>
		<path class="st6" d="M106.7,163.5c0.2,0.6,1.3,1.1,1.6-0.3c0.3-1.5-1.2-2.8-1.2-2.8S106.5,163,106.7,163.5"/>
		<path class="st6" d="M120.3,151.6c0.6,0.2,1.1,1.3-0.4,1.6c-1.5,0.3-2.8-1.3-2.8-1.3S119.8,151.4,120.3,151.6"/>
		<path class="st6" d="M118.4,157.5c0.3,0.5,0.1,1.7-1.3,1c-1.4-0.7-1.4-2.7-1.4-2.7S118.1,157,118.4,157.5"/>
		<path class="st6" d="M117.4,141.9c0.6-0.2,1.7,0.4,0.7,1.5c-1,1.1-3.1,0.7-3.1,0.7S116.8,142,117.4,141.9"/>
		<path class="st6" d="M120.1,146.8c0.6,0.1,1.4,1,0,1.6s-3.1-0.6-3.1-0.6S119.5,146.7,120.1,146.8"/>
	</g>
</g>
</svg>
