<?xml version="1.0" encoding="utf-8"?>
<!-- Generator: Adobe Illustrator 19.1.0, SVG Export Plug-In . SVG Version: 6.00 Build 0)  -->
<svg version="1.1" id="Capa_1" xmlns="http://www.w3.org/2000/svg" xmlns:xlink="http://www.w3.org/1999/xlink" x="0px" y="0px"
	 viewBox="0 0 283.5 283.5" style="enable-background:new 0 0 283.5 283.5;" xml:space="preserve">
<style type="text/css">
	.st0{clip-path:url(#SVGID_2_);}
	.st1{opacity:0.4;clip-path:url(#SVGID_4_);}
	.st2{clip-path:url(#SVGID_6_);fill:#BCCF00;}
	.st3{clip-path:url(#SVGID_4_);fill:#FFFFFF;}
	.st4{clip-path:url(#SVGID_2_);fill:#FFFFFF;}
	.st5{clip-path:url(#SVGID_8_);fill:none;stroke:#FFFFFF;stroke-width:3.265;}
	.st6{clip-path:url(#SVGID_8_);fill:#FFFFFF;}
</style>
<g>
	<defs>
		<rect id="SVGID_1_" x="6" y="8.8" width="271.4" height="272.4"/>
	</defs>
	<clipPath id="SVGID_2_">
		<use xlink:href="#SVGID_1_"  style="overflow:visible;"/>
	</clipPath>
	<g class="st0">
		<defs>
			<rect id="SVGID_3_" x="6" y="8.8" width="271.4" height="272.4"/>
		</defs>
		<clipPath id="SVGID_4_">
			<use xlink:href="#SVGID_3_"  style="overflow:visible;"/>
		</clipPath>
		<g class="st1">
			<g>
				<defs>
					<rect id="SVGID_5_" x="-3" y="1.8" width="289.4" height="280.4"/>
				</defs>
				<clipPath id="SVGID_6_">
					<use xlink:href="#SVGID_5_"  style="overflow:visible;"/>
				</clipPath>
				<rect x="6" y="8.8" class="st2" width="271.4" height="272.4"/>
			</g>
		</g>
		<path class="st3" d="M195.7,89c-0.2,0.5-0.8,3-1.9,7.5c-1,4.4-1.9,8-2.7,10.8c-0.7,2.8-1.2,4.7-1.5,5.9c-0.1,0.7,0,1.3,0.4,1.9
			c0.4,0.6,0.8,0.8,1.3,0.8c1,0,1.9-1,2.6-3c4-12.5,5.9-19.9,5.9-22.2c0-0.8-0.3-1.6-0.9-2.4c-0.6-0.8-1.2-1.2-1.9-1.2
			C196.6,87.2,196.1,87.8,195.7,89 M202.4,78c-0.9-1.5-1.6-2.3-2.2-2.3s-1.2,0.3-1.8,1c-0.6,0.7-0.9,1.4-0.9,2.1s0.6,1.7,1.7,2.8
			c1.1,1.1,2.1,1.6,3,1.6c0.3,0,0.7-0.1,1-0.4s0.5-0.6,0.5-1C203.7,80.8,203.2,79.5,202.4,78 M182.4,97.4c-0.5,0.2-0.8,0.5-1,1.1
			c-1.2,3.8-3.2,6.9-5.9,9.3c-2.7,2.4-5.1,3.6-7.2,3.5c-0.7,0-1.3-0.3-1.8-0.7c-0.5-0.4-0.7-1-0.7-1.7c0-1.7,0.8-3.9,2.3-6.6
			c1.5-2.7,3.4-5.2,5.5-7.4c2.2-2.2,4.1-3.3,5.7-3.3c1,0,1.7,0.5,2.3,1.5c0.5,1,0.8,2.3,0.8,3.9V97.4z M184,89.6
			c-1.6-1.6-3.4-2.4-5.2-2.4c-2.4,0-5.1,1.3-7.9,4c-2.8,2.6-5.1,5.7-6.9,9.1c-1.8,3.4-2.7,6.3-2.7,8.7c0,1.7,0.8,3.3,2.3,4.7
			c1.6,1.5,3.2,2.2,4.9,2.2c1.7,0,3.5-0.6,5.5-1.9c2-1.3,3.8-2.9,5.4-4.9c0.2,4.5,1,6.8,2.4,6.8c0.7,0,1.1-0.5,1.2-1.4
			c0.1-0.5,0.1-1,0.2-1.5c0.1-0.5,0.1-1.1,0.2-1.9c0.1-0.8,0.2-1.7,0.4-2.7c0.2-1,0.6-2.5,1.1-4.4c0.5-1.9,0.8-3.1,0.8-3.6
			c0-0.5-0.2-1-0.6-1.6c0.9-1.6,1.4-2.9,1.4-4.1C186.5,92.9,185.7,91.2,184,89.6 M138,111.5l1.3-5.6l0.1,0.1
			c1.6-4.1,3.6-7.5,6.3-10.2c2.6-2.7,4.7-4,6.3-4c1.6,0,2.3,1.7,2.3,5.2c0,3.5-1.8,6.8-5.3,9.9c-3.5,3.1-6.9,4.7-10.2,4.7
			C138.4,111.5,138.1,111.5,138,111.5 M134.4,126.5c0.2-0.7,0.5-1.7,0.7-2.8c0.3-1.1,0.5-2.1,0.7-2.9c0.2-0.8,0.4-1.7,0.6-2.9
			c0.3-1.1,0.4-2,0.6-2.4v-0.1c0.7,0.2,1.5,0.3,2.4,0.3c2.6,0,5.4-1,8.5-2.9c3.1-1.9,5.7-4.4,7.9-7.3c2.2-3,3.3-5.8,3.3-8.4
			c0-2.6-0.6-5-1.8-7.1c-1.2-2.1-2.6-3.1-4.3-3.1c-3.7,0-7.3,2.4-10.8,7.3c0.3-1.2,0.4-2.2,0.4-2.7c0-1.3-0.5-2.4-1.4-3.3
			c-0.9-0.9-1.6-1.4-2.1-1.4c-0.5,0-0.8,0.1-1,0.3c-0.2,0.2-0.4,0.7-0.4,1.5c-0.4,6.9-2.3,17.3-5.8,31.2c-1.1,4.4-1.7,7-1.7,7.7
			c0,0.7,0.3,1.5,0.8,2.2c0.6,0.8,1,1.2,1.4,1.2c0.3,0,0.6-0.2,0.8-0.6c0.2-0.4,0.4-0.9,0.7-1.6C133.9,128,134.2,127.2,134.4,126.5
			 M125.1,87.2c-2.1,0-4.8,1.1-8,3.3c-3.2,2.2-4.8,4.3-4.8,6.4c0,1.2,0.6,2.3,1.7,3.4c1.1,1.1,2.4,2.1,3.7,2.8
			c1.4,0.8,2.6,1.6,3.7,2.7c1.1,1,1.7,2,1.7,2.9c0,0.9-0.5,1.7-1.5,2.2c-1,0.6-2.6,0.8-4.8,0.8c-2.2,0-4.3-0.7-6.3-2
			c-1-0.7-1.7-1-2.2-1c-0.8,0-1.2,0.5-1.2,1.6c0,1.1,1.1,2.3,3.2,3.6c2.1,1.3,4.6,2,7.4,2s5.2-0.7,7.3-2.1c2.1-1.4,3.1-2.9,3.1-4.5
			c0-1.6-0.6-3-1.7-4.3c-1.1-1.3-2.4-2.4-3.7-3.2c-1.3-0.8-2.6-1.7-3.7-2.5c-1.1-0.9-1.7-1.6-1.7-2.2c0-1.2,1-2.4,3-3.6
			c2-1.1,3.5-1.7,4.5-1.7c1,0,1.9,0.4,2.8,1.1c0.9,0.7,1.6,1.1,2,1.1c0.6,0,0.9-0.4,0.9-1.3c0-0.8-0.6-2-1.7-3.4
			C127.6,87.9,126.4,87.2,125.1,87.2 M101.4,93.2c1,1.1,1.5,2.3,1.5,3.3c0,1.1-0.7,2-2.2,2.6c-1.4,0.6-3.2,1-5.2,1
			c-2.1,0-3.9-0.2-5.7-0.5c1.1-2.3,2.4-4.2,4-5.8c1.6-1.6,3.1-2.3,4.7-2.3C99.5,91.5,100.5,92.1,101.4,93.2 M104.4,90.4
			c-1.9-2.2-3.9-3.2-6.2-3.2c-2.3,0-4.6,1-6.9,3.1s-4.2,4.6-5.7,7.6c-1.5,3-2.2,5.9-2.2,8.6c0,2.7,1,5,2.9,6.8
			c1.9,1.8,4.3,2.7,7.3,2.7c2.2,0,4.5-0.6,6.8-1.8c2.3-1.2,3.5-2.3,3.5-3.3c0-0.7-0.5-1.1-1.5-1.1c-0.2,0-1.4,0.3-3.4,1s-4,1-5.9,1
			c-1.9,0-3.3-0.4-4.2-1.2c-0.9-0.8-1.3-1.9-1.3-3.3c0-1.4,0.3-3,0.8-4.7c2.6,0.7,5.2,1,7.9,1c2.7,0,5.2-0.6,7.4-1.9
			c2.2-1.3,3.3-3,3.3-5C107.2,94.7,106.3,92.6,104.4,90.4"/>
		<path class="st3" d="M236.1,132.8c9.6,0,17.5,8,17.5,17.7c0,9.9-7.8,17.8-17.6,17.8c-9.6,0-17.4-8-17.4-18
			C218.7,140.8,226.7,132.8,236.1,132.8 M236.1,122.5c-15.3,0-27.7,12.4-27.7,27.6c0,7.5,2.4,14.2,7,19.2c5.2,5.8,12.9,9.2,20.5,9.2
			c15.8,0,28-12.2,28-28.1C264,134.8,251.7,122.5,236.1,122.5"/>
	</g>
	<polygon class="st4" points="139.4,122.7 151.1,178.9 162.6,178.9 172.5,143.4 182.2,178.9 193.8,178.9 205.5,122.7 194.3,122.7 
		187.5,157.1 177.9,122.7 167.1,122.7 157.4,157.1 150.6,122.7 	"/>
	<polygon class="st4" points="28,122.7 28,178.9 38.7,178.9 38.7,163.2 50.1,150.4 67.4,178.9 79.7,178.9 57.6,142.3 74.9,122.7 
		60.7,122.7 38.7,147.6 38.7,122.7 	"/>
	<g class="st0">
		<defs>
			<rect id="SVGID_7_" x="6" y="8.8" width="271.4" height="272.4"/>
		</defs>
		<clipPath id="SVGID_8_">
			<use xlink:href="#SVGID_7_"  style="overflow:visible;"/>
		</clipPath>
		<circle class="st5" cx="105.6" cy="151" r="28.1"/>
		<path class="st6" d="M109.8,136.7c0,0,0.2-2.1-0.5-0.1l-2.4,6.5c0,0-0.7,2-1.4,0l-2.4-6.5c0,0-0.7-2-0.5,0.1l0.8,6.9
			c0,0,0.2,2.1-1.3,0.6l-5.1-4.9c0,0-1.5-1.5-0.4,0.3l3.8,5.9c0,0,1.1,1.8-0.8,1.1l-6.8-2.3c0,0-2-0.7-0.2,0.4l6.1,3.7
			c0,0,1.8,1.1-0.3,1.3l-7.2,0.8c0,0-2.1,0.2,0,0.5l7.2,0.8c0,0,2.1,0.2,0.3,1.3l-6.1,3.7c0,0-1.8,1.1,0.2,0.4l6.8-2.3
			c0,0,2-0.7,0.8,1.1l-3.8,5.9c0,0-1.1,1.8,0.4,0.3l5.1-4.9c0,0,1.5-1.5,1.3,0.6l-0.8,6.9c0,0-0.2,2.1,0.5,0.1l2.4-6.5
			c0,0,0.7-2,1.4,0l2.4,6.5c0,0,0.7,2,0.5-0.1l-0.8-6.9c0,0-0.2-2.1,1.3-0.6l5.1,4.9c0,0,1.5,1.5,0.4-0.3L112,156
			c0,0-1.1-1.8,0.9-1.1l6.8,2.3c0,0,2,0.7,0.2-0.4l-6.1-3.7c0,0-1.8-1.1,0.3-1.3l7.2-0.8c0,0,2.1-0.2,0-0.5l-7.2-0.8
			c0,0-2.1-0.2-0.3-1.3l6.1-3.7c0,0,1.8-1.1-0.2-0.4l-6.8,2.3c0,0-2,0.7-0.9-1.1l3.8-5.9c0,0,1.1-1.8-0.4-0.3l-5.1,4.9
			c0,0-1.5,1.5-1.3-0.6L109.8,136.7z"/>
		<path class="st6" d="M93.1,148.9c-0.6-0.3-1.1-1.4,0.4-1.6c1.5-0.2,2.8,1.5,2.8,1.5S93.7,149.2,93.1,148.9"/>
		<path class="st6" d="M107.2,137.9c-0.1-0.6-1.1-1.3-1.7,0.1c-0.5,1.4,0.8,2.9,0.8,2.9S107.3,138.5,107.2,137.9"/>
		<path class="st6" d="M112.9,139.6c0.2-0.6-0.3-1.7-1.5-0.8c-1.2,1-0.8,2.9-0.8,2.9S112.7,140.2,112.9,139.6"/>
		<path class="st6" d="M95.2,143.1c-0.4-0.5-0.3-1.7,1.1-1.2c1.4,0.5,1.8,2.5,1.8,2.5S95.6,143.6,95.2,143.1"/>
		<path class="st6" d="M99.7,139.5c-0.1-0.6,0.4-1.7,1.5-0.6c1.1,1.1,0.6,3,0.6,3S99.8,140.1,99.7,139.5"/>
		<path class="st6" d="M94,154.4c-0.6,0-1.6-0.8-0.3-1.6c1.3-0.8,3.1,0.2,3.1,0.2S94.6,154.5,94,154.4"/>
		<path class="st6" d="M99.8,162.5c-0.1,0.6,0.7,1.6,1.6,0.4c0.9-1.2,0.1-3,0.1-3S99.9,161.9,99.8,162.5"/>
		<path class="st6" d="M95.3,158.6c-0.3,0.5,0,1.7,1.3,1c1.3-0.7,1.3-2.7,1.3-2.7S95.6,158.1,95.3,158.6"/>
		<path class="st6" d="M111.5,162.7c0.5,0.4,1.7,0.3,1.2-1.1c-0.5-1.4-2.5-1.7-2.5-1.7S111,162.4,111.5,162.7"/>
		<path class="st6" d="M105.5,164c0.2,0.6,1.3,1.1,1.6-0.3c0.3-1.5-1.2-2.8-1.2-2.8S105.3,163.5,105.5,164"/>
		<path class="st6" d="M119.1,152.1c0.6,0.2,1.1,1.3-0.4,1.6c-1.5,0.3-2.8-1.3-2.8-1.3S118.6,151.9,119.1,152.1"/>
		<path class="st6" d="M117.2,158c0.3,0.5,0.1,1.7-1.3,1c-1.4-0.7-1.4-2.7-1.4-2.7S116.9,157.5,117.2,158"/>
		<path class="st6" d="M116.2,142.4c0.6-0.2,1.7,0.4,0.7,1.5c-1,1.1-3.1,0.7-3.1,0.7S115.6,142.5,116.2,142.4"/>
		<path class="st6" d="M118.9,147.3c0.6,0.1,1.4,1,0,1.6s-3.1-0.6-3.1-0.6S118.3,147.2,118.9,147.3"/>
	</g>
</g>
</svg>
