<?xml version="1.0" encoding="utf-8"?>
<!-- Generator: Adobe Illustrator 19.1.0, SVG Export Plug-In . SVG Version: 6.00 Build 0)  -->
<svg version="1.1" id="Capa_1" xmlns="http://www.w3.org/2000/svg" xmlns:xlink="http://www.w3.org/1999/xlink" x="0px" y="0px"
	 viewBox="0 0 226.8 226.8" style="enable-background:new 0 0 226.8 226.8;" xml:space="preserve">
<style type="text/css">
	.st0{clip-path:url(#SVGID_2_);fill:none;stroke:#FFFFFF;stroke-width:1.529;}
	.st1{clip-path:url(#SVGID_4_);fill:#FFFFFF;}
	.st2{fill:#FFFFFF;}
	.st3{clip-path:url(#SVGID_6_);fill:none;stroke:#FFFFFF;stroke-width:2.672;}
	.st4{clip-path:url(#SVGID_6_);fill:#FFFFFF;}
</style>
<g>
	<defs>
		<rect id="SVGID_1_" x="1.5" y="1.1" width="223.8" height="224.5"/>
	</defs>
	<clipPath id="SVGID_2_">
		<use xlink:href="#SVGID_1_"  style="overflow:visible;"/>
	</clipPath>
	<path class="st0" d="M24,1.9c0,0-21.7,0-21.7,21.7v179.6c0,0,0,21.7,21.7,21.7h178.7c0,0,21.7,0,21.7-21.7V23.6
		c0,0,0-21.7-21.7-21.7H24z"/>
</g>
<g>
	<defs>
		<rect id="SVGID_3_" x="1.5" y="1.1" width="223.8" height="224.5"/>
	</defs>
	<clipPath id="SVGID_4_">
		<use xlink:href="#SVGID_3_"  style="overflow:visible;"/>
	</clipPath>
	<path class="st1" d="M82.9,69.8c-1.5-1.8-3.2-2.6-5.1-2.6c-1.9,0-3.7,0.8-5.6,2.5c-1.9,1.7-3.5,3.7-4.6,6.2
		c-1.2,2.5-1.8,4.8-1.8,7.1c0,2.2,0.8,4.1,2.3,5.6c1.6,1.5,3.5,2.2,6,2.2c1.8,0,3.7-0.5,5.6-1.5c1.9-1,2.9-1.9,2.9-2.7
		c0-0.6-0.4-0.9-1.2-0.9c-0.2,0-1.1,0.3-2.8,0.9c-1.7,0.6-3.2,0.9-4.8,0.9c-1.5,0-2.7-0.3-3.4-1c-0.7-0.6-1.1-1.5-1.1-2.7
		c0-1.2,0.2-2.4,0.7-3.8c2.1,0.5,4.3,0.8,6.5,0.8c2.2,0,4.2-0.5,6.1-1.6c1.8-1,2.7-2.4,2.7-4.1S84.4,71.6,82.9,69.8 M80.5,72.1
		c0.8,0.9,1.2,1.9,1.2,2.7c0,0.9-0.6,1.6-1.8,2.1c-1.2,0.5-2.6,0.8-4.3,0.8c-1.7,0-3.2-0.1-4.6-0.4c0.9-1.9,2-3.4,3.3-4.7
		c1.3-1.3,2.6-1.9,3.8-1.9C78.9,70.7,79.7,71.2,80.5,72.1 M99.8,67.2c-1.7,0-3.9,0.9-6.5,2.7c-2.6,1.8-3.9,3.5-3.9,5.2
		c0,1,0.5,1.9,1.4,2.8c0.9,0.9,1.9,1.7,3.1,2.3c1.1,0.6,2.1,1.3,3.1,2.2c0.9,0.8,1.4,1.6,1.4,2.4c0,0.7-0.4,1.4-1.3,1.8
		c-0.8,0.5-2.2,0.7-3.9,0.7c-1.8,0-3.5-0.6-5.1-1.7c-0.8-0.6-1.4-0.9-1.8-0.9c-0.7,0-1,0.4-1,1.3c0,0.9,0.9,1.9,2.6,3
		c1.7,1.1,3.7,1.6,6,1.6c2.3,0,4.3-0.6,6-1.7c1.7-1.2,2.5-2.4,2.5-3.6c0-1.3-0.5-2.4-1.4-3.5c-0.9-1.1-1.9-2-3-2.6
		c-1.1-0.7-2.1-1.4-3-2.1c-0.9-0.7-1.4-1.3-1.4-1.8c0-1,0.8-2,2.5-2.9c1.7-0.9,2.9-1.4,3.6-1.4c0.8,0,1.5,0.3,2.3,0.9
		c0.7,0.6,1.3,0.9,1.6,0.9c0.5,0,0.7-0.3,0.7-1c0-0.7-0.5-1.6-1.4-2.8C101.9,67.8,100.9,67.2,99.8,67.2 M107.4,99.4
		c0.2-0.6,0.4-1.4,0.6-2.3c0.2-0.9,0.4-1.7,0.5-2.3c0.1-0.6,0.3-1.4,0.5-2.4c0.2-0.9,0.4-1.6,0.5-2v0c0.5,0.2,1.2,0.3,2,0.3
		c2.1,0,4.4-0.8,6.9-2.4s4.7-3.6,6.5-6c1.8-2.4,2.7-4.7,2.7-6.9s-0.5-4.1-1.5-5.8c-1-1.7-2.1-2.6-3.5-2.6c-3,0-5.9,2-8.9,6
		c0.2-1,0.3-1.8,0.3-2.2c0-1-0.4-2-1.2-2.7s-1.3-1.1-1.7-1.1c-0.4,0-0.7,0.1-0.9,0.2c-0.2,0.1-0.3,0.5-0.4,1.2
		c-0.3,5.7-1.9,14.2-4.8,25.5c-0.9,3.6-1.4,5.7-1.4,6.3c0,0.6,0.2,1.2,0.7,1.8c0.5,0.6,0.8,1,1.1,1c0.3,0,0.5-0.2,0.7-0.5
		c0.2-0.3,0.4-0.7,0.5-1.3C107,100.6,107.2,100,107.4,99.4 M110.3,87.1l1.1-4.6l0,0c1.3-3.4,3-6.1,5.1-8.3c2.1-2.2,3.9-3.3,5.1-3.3
		c1.3,0,1.9,1.4,1.9,4.3c0,2.8-1.4,5.5-4.3,8.1c-2.9,2.6-5.6,3.8-8.3,3.8C110.7,87.1,110.5,87.1,110.3,87.1 M148,69.2
		c-1.3-1.3-2.8-2-4.3-2c-2,0-4.2,1.1-6.5,3.2c-2.3,2.2-4.2,4.6-5.6,7.4c-1.5,2.8-2.2,5.2-2.2,7.1c0,1.4,0.6,2.7,1.9,3.9
		c1.3,1.2,2.6,1.8,4,1.8c1.4,0,2.9-0.5,4.5-1.6c1.6-1,3.1-2.4,4.4-4c0.2,3.7,0.8,5.5,2,5.5c0.5,0,0.9-0.4,1-1.1
		c0.1-0.4,0.1-0.8,0.2-1.2c0-0.4,0.1-0.9,0.1-1.6s0.2-1.4,0.3-2.2c0.2-0.9,0.5-2.1,0.9-3.6c0.4-1.6,0.7-2.5,0.7-2.9
		c0-0.4-0.2-0.8-0.5-1.3c0.8-1.3,1.1-2.4,1.1-3.3C150,71.9,149.4,70.5,148,69.2 M146.7,75.6c-0.4,0.1-0.7,0.4-0.8,0.9
		c-1,3.1-2.6,5.7-4.8,7.7c-2.2,2-4.2,2.9-5.9,2.9c-0.6,0-1.1-0.2-1.5-0.6c-0.4-0.4-0.6-0.8-0.6-1.4c0-1.4,0.6-3.2,1.9-5.4
		c1.2-2.2,2.7-4.2,4.5-6c1.8-1.8,3.3-2.7,4.7-2.7c0.8,0,1.4,0.4,1.9,1.2c0.4,0.8,0.7,1.9,0.7,3.2V75.6z M163.1,59.6
		c-0.7-1.3-1.3-1.9-1.8-1.9c-0.5,0-1,0.3-1.5,0.8c-0.5,0.5-0.7,1.1-0.7,1.7c0,0.6,0.5,1.4,1.4,2.3c0.9,0.9,1.7,1.3,2.5,1.3
		c0.3,0,0.6-0.1,0.8-0.4c0.3-0.2,0.4-0.5,0.4-0.8C164.1,61.9,163.8,60.9,163.1,59.6 M157.6,68.7c-0.2,0.4-0.7,2.5-1.5,6.1
		c-0.9,3.6-1.6,6.6-2.2,8.8c-0.6,2.3-1,3.9-1.2,4.9c-0.1,0.6,0,1.1,0.3,1.5c0.3,0.5,0.7,0.7,1.1,0.7c0.9,0,1.6-0.8,2.1-2.4
		c3.2-10.2,4.9-16.3,4.9-18.2c0-0.6-0.2-1.3-0.7-1.9c-0.5-0.7-1-1-1.5-1C158.3,67.2,157.9,67.7,157.6,68.7"/>
	<path class="st1" d="M190.7,96.1c-12.5,0-22.7,10.1-22.7,22.6c0,6.2,2,11.6,5.8,15.8c4.2,4.8,10.5,7.5,16.8,7.5
		c12.9,0,22.9-10,22.9-23C213.4,106.1,203.4,96.1,190.7,96.1 M190.7,104.5c7.9,0,14.4,6.6,14.4,14.5c0,8.1-6.4,14.6-14.4,14.6
		c-7.9,0-14.2-6.6-14.2-14.8C176.4,111,182.9,104.5,190.7,104.5"/>
</g>
<polygon class="st2" points="111.5,96.2 121.1,142.3 130.5,142.3 138.6,113.1 146.6,142.3 156,142.3 165.6,96.2 156.4,96.2 
	150.8,124.4 143,96.2 134.2,96.2 126.3,124.4 120.7,96.2 "/>
<polygon class="st2" points="20.3,96.2 20.3,142.3 29.1,142.3 29.1,129.4 38.5,118.9 52.6,142.3 62.7,142.3 44.6,112.3 58.8,96.2 
	47.1,96.2 29.1,116.6 29.1,96.2 "/>
<g>
	<defs>
		<rect id="SVGID_5_" x="1.5" y="1.1" width="223.8" height="224.5"/>
	</defs>
	<clipPath id="SVGID_6_">
		<use xlink:href="#SVGID_5_"  style="overflow:visible;"/>
	</clipPath>
	<circle class="st3" cx="83.9" cy="119.4" r="23"/>
	<path class="st4" d="M87.3,107.6c0,0,0.2-1.5-0.3-0.1l-2,5.6c0,0-0.5,1.4-1,0l-2-5.6c0,0-0.5-1.4-0.3,0.1l0.7,5.9
		c0,0,0.2,1.5-0.9,0.5l-4.4-4.2c0,0-1.1-1.1-0.3,0.2l3.3,5.1c0,0,0.8,1.3-0.6,0.8l-5.8-2c0,0-1.4-0.5-0.1,0.3l5.2,3.2
		c0,0,1.3,0.8-0.2,1l-6.2,0.7c0,0-1.5,0.2,0,0.3l6.2,0.7c0,0,1.5,0.2,0.2,1l-5.2,3.2c0,0-1.3,0.8,0.1,0.3l5.8-2c0,0,1.4-0.5,0.6,0.8
		l-3.3,5.1c0,0-0.8,1.3,0.3,0.2l4.4-4.2c0,0,1.1-1.1,0.9,0.5l-0.7,5.9c0,0-0.2,1.5,0.3,0.1l2-5.6c0,0,0.5-1.4,1,0l2,5.6
		c0,0,0.5,1.4,0.3-0.1l-0.7-5.9c0,0-0.2-1.5,0.9-0.5l4.4,4.2c0,0,1.1,1.1,0.3-0.2l-3.3-5.1c0,0-0.8-1.3,0.6-0.8l5.8,2
		c0,0,1.4,0.5,0.1-0.3l-5.2-3.2c0,0-1.3-0.8,0.2-1l6.2-0.7c0,0,1.5-0.2,0-0.3l-6.2-0.7c0,0-1.5-0.2-0.2-1l5.2-3.2
		c0,0,1.3-0.8-0.1-0.3l-5.8,2c0,0-1.4,0.5-0.6-0.8l3.3-5.1c0,0,0.8-1.3-0.3-0.2l-4.4,4.2c0,0-1.1,1.1-0.9-0.5L87.3,107.6z"/>
	<path class="st4" d="M73.6,117.7c-0.5-0.2-0.9-1.1,0.3-1.3c1.2-0.1,2.3,1.2,2.3,1.2S74.1,117.9,73.6,117.7"/>
	<path class="st4" d="M85.2,108.7c-0.1-0.5-0.9-1.1-1.4,0.1c-0.4,1.1,0.7,2.4,0.7,2.4S85.3,109.2,85.2,108.7"/>
	<path class="st4" d="M89.8,110.1c0.1-0.5-0.3-1.4-1.2-0.6c-0.9,0.8-0.6,2.4-0.6,2.4S89.7,110.6,89.8,110.1"/>
	<path class="st4" d="M75.4,112.9c-0.3-0.4-0.3-1.4,0.9-1c1.2,0.4,1.5,2,1.5,2S75.7,113.3,75.4,112.9"/>
	<path class="st4" d="M79,110c-0.1-0.5,0.4-1.4,1.2-0.5c0.9,0.9,0.5,2.5,0.5,2.5S79.1,110.5,79,110"/>
	<path class="st4" d="M74.4,122.2c-0.5,0-1.3-0.7-0.2-1.3c1.1-0.6,2.6,0.2,2.6,0.2S74.9,122.2,74.4,122.2"/>
	<path class="st4" d="M79.1,128.8c0,0.5,0.6,1.3,1.3,0.3c0.8-1,0.1-2.5,0.1-2.5S79.2,128.3,79.1,128.8"/>
	<path class="st4" d="M75.4,125.7c-0.2,0.4,0,1.4,1.1,0.8s1.1-2.2,1.1-2.2S75.7,125.2,75.4,125.7"/>
	<path class="st4" d="M88.7,129c0.4,0.3,1.4,0.2,1-0.9c-0.4-1.2-2.1-1.4-2.1-1.4S88.3,128.7,88.7,129"/>
	<path class="st4" d="M83.7,130.1c0.2,0.5,1.1,0.9,1.3-0.3c0.3-1.2-1-2.3-1-2.3S83.6,129.6,83.7,130.1"/>
	<path class="st4" d="M94.9,120.3c0.5,0.2,0.9,1.1-0.3,1.3c-1.2,0.2-2.3-1-2.3-1S94.5,120.2,94.9,120.3"/>
	<path class="st4" d="M93.3,125.1c0.2,0.4,0.1,1.4-1.1,0.8c-1.1-0.6-1.2-2.2-1.2-2.2S93.1,124.7,93.3,125.1"/>
	<path class="st4" d="M92.5,112.3c0.5-0.1,1.4,0.3,0.6,1.2c-0.9,0.9-2.5,0.5-2.5,0.5S92,112.5,92.5,112.3"/>
	<path class="st4" d="M94.7,116.4c0.5,0.1,1.2,0.8,0,1.3c-1.1,0.5-2.5-0.5-2.5-0.5S94.2,116.3,94.7,116.4"/>
</g>
</svg>
