<?xml version="1.0" encoding="utf-8"?>
<!-- Generator: Adobe Illustrator 19.1.0, SVG Export Plug-In . SVG Version: 6.00 Build 0)  -->
<svg version="1.1" id="Capa_1" xmlns="http://www.w3.org/2000/svg" xmlns:xlink="http://www.w3.org/1999/xlink" x="0px" y="0px"
	 viewBox="0 0 283.5 283.5" style="enable-background:new 0 0 283.5 283.5;" xml:space="preserve">
<style type="text/css">
	.st0{clip-path:url(#SVGID_2_);}
	.st1{opacity:0.5;clip-path:url(#SVGID_4_);}
	.st2{clip-path:url(#SVGID_6_);}
	.st3{clip-path:url(#SVGID_4_);fill:#FFFFFF;}
	.st4{clip-path:url(#SVGID_2_);fill:#FFFFFF;}
	.st5{clip-path:url(#SVGID_8_);fill:none;stroke:#FFFFFF;stroke-width:3.265;}
	.st6{clip-path:url(#SVGID_8_);fill:#FFFFFF;}
</style>
<g>
	<defs>
		<rect id="SVGID_1_" x="8" y="5.5" width="271.4" height="272.4"/>
	</defs>
	<clipPath id="SVGID_2_">
		<use xlink:href="#SVGID_1_"  style="overflow:visible;"/>
	</clipPath>
	<g class="st0">
		<defs>
			<rect id="SVGID_3_" x="8" y="5.5" width="271.4" height="272.4"/>
		</defs>
		<clipPath id="SVGID_4_">
			<use xlink:href="#SVGID_3_"  style="overflow:visible;"/>
		</clipPath>
		<g class="st1">
			<g>
				<defs>
					<rect id="SVGID_5_" x="-1" y="-1.5" width="289.4" height="280.4"/>
				</defs>
				<clipPath id="SVGID_6_">
					<use xlink:href="#SVGID_5_"  style="overflow:visible;"/>
				</clipPath>
				<rect x="8" y="5.5" class="st2" width="271.4" height="272.4"/>
			</g>
		</g>
		<path class="st3" d="M197.7,85.7c-0.2,0.5-0.8,3-1.9,7.5c-1,4.4-1.9,8-2.7,10.8c-0.7,2.8-1.2,4.7-1.5,5.9c-0.1,0.7,0,1.3,0.4,1.9
			c0.4,0.6,0.8,0.8,1.3,0.8c1,0,1.9-1,2.6-3c4-12.5,5.9-19.9,5.9-22.2c0-0.8-0.3-1.6-0.9-2.4c-0.6-0.8-1.2-1.2-1.9-1.2
			C198.5,83.9,198.1,84.5,197.7,85.7 M204.3,74.7c-0.9-1.5-1.6-2.3-2.2-2.3s-1.2,0.3-1.8,1c-0.6,0.7-0.9,1.4-0.9,2.1
			s0.6,1.7,1.7,2.8c1.1,1.1,2.1,1.6,3,1.6c0.3,0,0.7-0.1,1-0.4s0.5-0.6,0.5-1C205.6,77.5,205.2,76.2,204.3,74.7 M184.4,94.2
			c-0.5,0.2-0.8,0.5-1,1.1c-1.2,3.8-3.2,6.9-5.9,9.3c-2.7,2.4-5.1,3.6-7.2,3.5c-0.7,0-1.3-0.3-1.8-0.7c-0.5-0.4-0.7-1-0.7-1.7
			c0-1.7,0.8-3.9,2.3-6.6c1.5-2.7,3.4-5.2,5.5-7.4c2.2-2.2,4.1-3.3,5.7-3.3c1,0,1.7,0.5,2.3,1.5c0.5,1,0.8,2.3,0.8,3.9V94.2z
			 M186,86.3c-1.6-1.6-3.4-2.4-5.2-2.4c-2.4,0-5.1,1.3-7.9,4c-2.8,2.6-5.1,5.7-6.9,9.1c-1.8,3.4-2.7,6.3-2.7,8.7
			c0,1.7,0.8,3.3,2.3,4.7c1.6,1.5,3.2,2.2,4.9,2.2c1.7,0,3.5-0.6,5.5-1.9c2-1.3,3.8-2.9,5.4-4.9c0.2,4.5,1,6.8,2.4,6.8
			c0.7,0,1.1-0.5,1.2-1.4c0.1-0.5,0.1-1,0.2-1.5c0.1-0.5,0.1-1.1,0.2-1.9c0.1-0.8,0.2-1.7,0.4-2.7c0.2-1,0.6-2.5,1.1-4.4
			c0.5-1.9,0.8-3.1,0.8-3.6c0-0.5-0.2-1-0.6-1.6c0.9-1.6,1.4-2.9,1.4-4.1C188.4,89.6,187.6,87.9,186,86.3 M139.9,108.2l1.3-5.6
			l0.1,0.1c1.6-4.1,3.6-7.5,6.3-10.2c2.6-2.7,4.7-4,6.3-4c1.6,0,2.3,1.7,2.3,5.2c0,3.5-1.8,6.8-5.3,9.9c-3.5,3.1-6.9,4.7-10.2,4.7
			C140.3,108.3,140.1,108.2,139.9,108.2 M136.3,123.2c0.2-0.7,0.5-1.7,0.7-2.8c0.3-1.1,0.5-2.1,0.7-2.9c0.2-0.8,0.4-1.7,0.6-2.9
			c0.3-1.1,0.4-2,0.6-2.4v-0.1c0.7,0.2,1.5,0.3,2.4,0.3c2.6,0,5.4-1,8.5-2.9c3.1-1.9,5.7-4.4,7.9-7.3c2.2-3,3.3-5.8,3.3-8.4
			c0-2.6-0.6-5-1.8-7.1c-1.2-2.1-2.6-3.1-4.3-3.1c-3.7,0-7.3,2.4-10.8,7.3c0.3-1.2,0.4-2.2,0.4-2.7c0-1.3-0.5-2.4-1.4-3.3
			c-0.9-0.9-1.6-1.4-2.1-1.4c-0.5,0-0.8,0.1-1,0.3c-0.2,0.2-0.4,0.7-0.4,1.5c-0.4,6.9-2.3,17.3-5.8,31.2c-1.1,4.4-1.7,7-1.7,7.7
			c0,0.7,0.3,1.5,0.8,2.2c0.6,0.8,1,1.2,1.4,1.2c0.3,0,0.6-0.2,0.8-0.6c0.2-0.4,0.4-0.9,0.7-1.6C135.9,124.7,136.1,124,136.3,123.2
			 M127,83.9c-2.1,0-4.8,1.1-8,3.3c-3.2,2.2-4.8,4.3-4.8,6.4c0,1.2,0.6,2.3,1.7,3.4c1.1,1.1,2.4,2.1,3.7,2.8
			c1.4,0.8,2.6,1.6,3.7,2.7c1.1,1,1.7,2,1.7,2.9c0,0.9-0.5,1.7-1.5,2.2c-1,0.6-2.6,0.8-4.8,0.8c-2.2,0-4.3-0.7-6.3-2
			c-1-0.7-1.7-1-2.2-1c-0.8,0-1.2,0.5-1.2,1.6c0,1.1,1.1,2.3,3.2,3.6c2.1,1.3,4.6,2,7.4,2c2.8,0,5.2-0.7,7.3-2.1
			c2.1-1.4,3.1-2.9,3.1-4.5c0-1.6-0.6-3-1.7-4.3c-1.1-1.3-2.4-2.4-3.7-3.2c-1.3-0.8-2.6-1.7-3.7-2.5c-1.1-0.9-1.7-1.6-1.7-2.2
			c0-1.2,1-2.4,3-3.6c2-1.1,3.5-1.7,4.5-1.7c1,0,1.9,0.4,2.8,1.1c0.9,0.7,1.6,1.1,2,1.1c0.6,0,0.9-0.4,0.9-1.3c0-0.8-0.6-2-1.7-3.4
			C129.6,84.6,128.4,83.9,127,83.9 M103.4,89.9c1,1.1,1.5,2.3,1.5,3.3c0,1.1-0.7,2-2.2,2.6c-1.4,0.6-3.2,1-5.2,1
			c-2.1,0-3.9-0.2-5.7-0.5c1.1-2.3,2.4-4.2,4-5.8c1.6-1.6,3.1-2.3,4.7-2.3C101.4,88.2,102.4,88.8,103.4,89.9 M106.4,87.1
			c-1.9-2.2-3.9-3.2-6.2-3.2c-2.3,0-4.6,1-6.9,3.1s-4.2,4.6-5.7,7.6c-1.5,3-2.2,5.9-2.2,8.6c0,2.7,1,5,2.9,6.8
			c1.9,1.8,4.3,2.7,7.3,2.7c2.2,0,4.5-0.6,6.8-1.8c2.3-1.2,3.5-2.3,3.5-3.3c0-0.7-0.5-1.1-1.5-1.1c-0.2,0-1.4,0.3-3.4,1
			c-2,0.7-4,1-5.9,1c-1.9,0-3.3-0.4-4.2-1.2c-0.9-0.8-1.3-1.9-1.3-3.3c0-1.4,0.3-3,0.8-4.7c2.6,0.7,5.2,1,7.9,1
			c2.7,0,5.2-0.6,7.4-1.9c2.2-1.3,3.3-3,3.3-5C109.2,91.4,108.2,89.3,106.4,87.1"/>
		<path class="st3" d="M238.1,129.5c9.6,0,17.5,8,17.5,17.7c0,9.9-7.8,17.8-17.6,17.8c-9.6,0-17.4-8-17.4-18
			C220.6,137.5,228.6,129.5,238.1,129.5 M238.1,119.2c-15.3,0-27.7,12.4-27.7,27.6c0,7.5,2.4,14.2,7,19.2c5.2,5.8,12.9,9.2,20.5,9.2
			c15.8,0,28-12.2,28-28.1C265.9,131.5,253.7,119.2,238.1,119.2"/>
	</g>
	<polygon class="st4" points="141.3,119.4 153,175.7 164.6,175.7 174.4,140.1 184.2,175.7 195.7,175.7 207.5,119.4 196.3,119.4 
		189.4,153.8 179.8,119.4 169,119.4 159.4,153.8 152.5,119.4 	"/>
	<polygon class="st4" points="29.9,119.4 29.9,175.7 40.6,175.7 40.6,159.9 52.1,147.1 69.4,175.7 81.7,175.7 59.5,139.1 
		76.9,119.4 62.6,119.4 40.6,144.3 40.6,119.4 	"/>
	<g class="st0">
		<defs>
			<rect id="SVGID_7_" x="8" y="5.5" width="271.4" height="272.4"/>
		</defs>
		<clipPath id="SVGID_8_">
			<use xlink:href="#SVGID_7_"  style="overflow:visible;"/>
		</clipPath>
		<circle class="st5" cx="107.6" cy="147.7" r="28.1"/>
		<path class="st6" d="M111.8,133.4c0,0,0.2-2.1-0.5-0.1l-2.4,6.5c0,0-0.7,2-1.4,0l-2.4-6.5c0,0-0.7-2-0.5,0.1l0.8,6.9
			c0,0,0.2,2.1-1.3,0.6l-5.1-4.9c0,0-1.5-1.5-0.4,0.3l3.8,5.9c0,0,1.1,1.8-0.8,1.1l-6.8-2.3c0,0-2-0.7-0.2,0.4l6.1,3.7
			c0,0,1.8,1.1-0.3,1.3l-7.2,0.8c0,0-2.1,0.2,0,0.5l7.2,0.8c0,0,2.1,0.2,0.3,1.3l-6.1,3.7c0,0-1.8,1.1,0.2,0.4l6.8-2.3
			c0,0,2-0.7,0.8,1.1l-3.8,5.9c0,0-1.1,1.8,0.4,0.3l5.1-4.9c0,0,1.5-1.5,1.3,0.6l-0.8,6.9c0,0-0.2,2.1,0.5,0.1l2.4-6.5
			c0,0,0.7-2,1.4,0l2.4,6.5c0,0,0.7,2,0.5-0.1l-0.8-6.9c0,0-0.2-2.1,1.3-0.6l5.1,4.9c0,0,1.5,1.5,0.4-0.3l-3.8-5.9
			c0,0-1.1-1.8,0.8-1.1l6.8,2.3c0,0,2,0.7,0.2-0.4l-6.1-3.7c0,0-1.8-1.1,0.3-1.3l7.2-0.8c0,0,2.1-0.2,0-0.5l-7.2-0.8
			c0,0-2.1-0.2-0.3-1.3l6.1-3.7c0,0,1.8-1.1-0.2-0.4l-6.8,2.3c0,0-2,0.7-0.8-1.1l3.8-5.9c0,0,1.1-1.8-0.4-0.3l-5.1,4.9
			c0,0-1.5,1.5-1.3-0.6L111.8,133.4z"/>
		<path class="st6" d="M95.1,145.6c-0.6-0.3-1.1-1.4,0.4-1.6c1.5-0.2,2.8,1.5,2.8,1.5S95.6,145.9,95.1,145.6"/>
		<path class="st6" d="M109.2,134.6c-0.1-0.6-1.1-1.3-1.7,0.1c-0.5,1.4,0.8,2.9,0.8,2.9S109.3,135.2,109.2,134.6"/>
		<path class="st6" d="M114.9,136.4c0.2-0.6-0.3-1.7-1.5-0.8c-1.2,1-0.8,2.9-0.8,2.9S114.7,136.9,114.9,136.4"/>
		<path class="st6" d="M97.2,139.8c-0.4-0.5-0.3-1.7,1.1-1.2c1.4,0.5,1.8,2.5,1.8,2.5S97.5,140.3,97.2,139.8"/>
		<path class="st6" d="M101.6,136.3c-0.1-0.6,0.4-1.7,1.5-0.6c1.1,1.1,0.6,3,0.6,3S101.7,136.8,101.6,136.3"/>
		<path class="st6" d="M95.9,151.2c-0.6,0-1.6-0.8-0.3-1.6s3.1,0.2,3.1,0.2S96.6,151.2,95.9,151.2"/>
		<path class="st6" d="M101.8,159.2c-0.1,0.6,0.7,1.6,1.6,0.4s0.1-3,0.1-3S101.8,158.6,101.8,159.2"/>
		<path class="st6" d="M97.3,155.4c-0.3,0.5,0,1.7,1.3,1c1.3-0.7,1.3-2.7,1.3-2.7S97.5,154.8,97.3,155.4"/>
		<path class="st6" d="M113.4,159.4c0.5,0.4,1.7,0.3,1.2-1.1s-2.5-1.7-2.5-1.7S112.9,159.1,113.4,159.4"/>
		<path class="st6" d="M107.4,160.8c0.2,0.6,1.3,1.1,1.6-0.3c0.3-1.5-1.2-2.8-1.2-2.8S107.2,160.2,107.4,160.8"/>
		<path class="st6" d="M121.1,148.9c0.6,0.2,1.1,1.3-0.4,1.6c-1.5,0.3-2.8-1.3-2.8-1.3S120.5,148.7,121.1,148.9"/>
		<path class="st6" d="M119.1,154.7c0.3,0.5,0.1,1.7-1.3,1c-1.4-0.7-1.4-2.7-1.4-2.7S118.8,154.2,119.1,154.7"/>
		<path class="st6" d="M118.1,139.1c0.6-0.2,1.7,0.4,0.7,1.5c-1,1.1-3.1,0.7-3.1,0.7S117.5,139.3,118.1,139.1"/>
		<path class="st6" d="M120.9,144.1c0.6,0.1,1.4,1,0,1.6s-3.1-0.6-3.1-0.6S120.2,144,120.9,144.1"/>
	</g>
</g>
</svg>
