<?xml version="1.0" encoding="utf-8"?>
<!-- Generator: Adobe Illustrator 19.1.0, SVG Export Plug-In . SVG Version: 6.00 Build 0)  -->
<svg version="1.1" id="Capa_1" xmlns="http://www.w3.org/2000/svg" xmlns:xlink="http://www.w3.org/1999/xlink" x="0px" y="0px"
	 viewBox="0 0 354.3 354.3" style="enable-background:new 0 0 354.3 354.3;" xml:space="preserve">
<style type="text/css">
	.st0{clip-path:url(#SVGID_2_);fill:#006633;}
	.st1{clip-path:url(#SVGID_2_);}
	.st2{font-family:'BebasNeueBold';}
	.st3{font-size:102.6588px;}
</style>
<g>
	<defs>
		<rect id="SVGID_1_" x="61.8" y="102.6" width="242.6" height="129.8"/>
	</defs>
	<clipPath id="SVGID_2_">
		<use xlink:href="#SVGID_1_"  style="overflow:visible;"/>
	</clipPath>
	<path class="st0" d="M117.6,117.8c-6.9,3.7-13.1,8.1-19.5,12.4c-1.3,0.9-0.1,2.9,1.2,2c6.4-4.4,12.6-8.8,19.5-12.4
		C120.1,119.1,119,117.1,117.6,117.8"/>
	<path class="st0" d="M113,145.4c-3.3-4.7-6.5-9.4-10.9-13.1c-1.2-1-2.9,0.7-1.7,1.7c4.3,3.5,7.4,8.1,10.6,12.6
		C111.8,147.8,113.9,146.6,113,145.4"/>
	<path class="st0" d="M127.3,118.1c-4.9,5-10.6,9.1-15.9,13.6c-1.2,1,0.5,2.7,1.7,1.7c5.3-4.6,10.9-8.7,15.9-13.6
		C130,118.7,128.4,117,127.3,118.1"/>
	<path class="st0" d="M129.1,149.8c-4.3-7.4-11.4-12.2-17.1-18.4c-1-1.1-2.7,0.6-1.7,1.7c5.5,6,12.6,10.7,16.7,17.9
		C127.9,152.3,129.9,151.2,129.1,149.8"/>
	<path class="st0" d="M143,118.7c-4.6,5.1-9.4,10-14.4,14.8c-1.1,1.1,0.6,2.7,1.7,1.7c5-4.8,9.8-9.7,14.4-14.8
		C145.7,119.2,144,117.5,143,118.7"/>
	<path class="st0" d="M158.9,120.3c-6.8,4.3-13.1,9.2-19.6,13.9c-1.2,0.9,0,2.9,1.2,2c6.5-4.7,12.8-9.6,19.6-13.9
		C161.4,121.5,160.2,119.5,158.9,120.3"/>
	<path class="st0" d="M164.6,147.4c-7.6-3.8-14.5-8.9-22.5-11.8c-1.4-0.5-2.1,1.8-0.6,2.3c7.8,2.8,14.6,7.9,22,11.5
		C164.8,150.1,166,148.1,164.6,147.4"/>
	<path class="st0" d="M174.7,119.8c-4.2,6.6-11.5,10.3-17.7,14.6c-1.2,0.9-0.1,2.9,1.2,2c6.6-4.6,14.1-8.5,18.6-15.5
		C177.6,119.7,175.6,118.5,174.7,119.8"/>
	<path class="st0" d="M181.5,142.9c-8.2-0.1-15.9-4.3-23.5-6.8c-1.5-0.5-2.1,1.8-0.6,2.3c7.8,2.6,15.8,6.9,24.2,6.9
		C183,145.3,183,142.9,181.5,142.9"/>
	<path class="st0" d="M192.4,118c-5.5,7.1-13.5,11.1-20.9,15.9c-1.3,0.8-0.1,2.9,1.2,2c7.5-4.9,15.7-9,21.4-16.3
		C195,118.5,193.3,116.8,192.4,118"/>
	<path class="st0" d="M197.9,142.5c-8.5-2.8-16.3-7.5-25.3-8.6c-1.5-0.2-1.8,2.2-0.2,2.4c8.7,1,16.4,5.7,24.7,8.4
		C198.5,145.2,199.3,143,197.9,142.5"/>
	<path class="st0" d="M205.6,118c-4.3,6.1-10.6,10.4-16.6,14.7c-1.2,0.9-0.1,2.9,1.2,2c6.4-4.5,12.8-9.1,17.4-15.5
		C208.5,117.9,206.5,116.8,205.6,118"/>
	<path class="st0" d="M214.8,140.8c-8.3-2.1-16.7-3.7-24.3-7.9c-1.3-0.7-2.5,1.3-1.2,2c7.7,4.3,16.4,6,24.8,8.1
		C215.6,143.5,216.3,141.2,214.8,140.8"/>
	<path class="st0" d="M205.7,104.8c-5.2,9.7-6.8,21.4-15.9,28.8c-1.2,0.9,0.5,2.5,1.7,1.6c9.3-7.6,11-19.3,16.2-29.3
		C208.4,104.7,206.4,103.5,205.7,104.8"/>
	<path class="st0" d="M215.7,116.7c-3.5,5.7-8.2,10.2-13.1,14.6c-1.1,1,0.5,2.7,1.7,1.7c5.1-4.5,9.9-9.2,13.5-15.1
		C218.5,116.6,216.5,115.4,215.7,116.7"/>
	<path class="st0" d="M232,108.7c-7.9,9-16,17.7-26.9,23.1c-1.4,0.7-0.2,2.7,1.2,2c11.1-5.4,19.3-14.3,27.4-23.5
		C234.7,109.2,233.1,107.5,232,108.7"/>
	<path class="st0" d="M177.3,109.6c-7.9,9-16,17.7-26.9,23.1c-1.4,0.7-0.2,2.7,1.2,2c11.1-5.4,19.3-14.3,27.4-23.5
		C180,110.2,178.3,108.5,177.3,109.6"/>
	<path class="st0" d="M238.5,139.2c-7.2-1.4-14.1-4.3-21.3-5.7c-1.5-0.3-2.1,2-0.6,2.3c7.2,1.4,14.1,4.3,21.3,5.7
		C239.3,141.8,240,139.5,238.5,139.2"/>
	<path class="st0" d="M240.8,109.4c-2.4,8.2-8.8,14.6-15,20.2c-1.1,1,0.5,2.7,1.7,1.7c6.5-5.9,13.1-12.6,15.6-21.2
		C243.5,108.6,241.2,108,240.8,109.4"/>
	<path class="st0" d="M256.4,106.3c-9.7,9.1-21.1,16-31.9,23.7c-1.2,0.9,0,2.9,1.2,2c10.9-7.8,22.5-14.8,32.3-24
		C259.1,106.9,257.5,105.2,256.4,106.3"/>
	<path class="st0" d="M254.7,119.4c-7.1,4.5-14.5,8.3-22.5,10.8c-1.5,0.4-0.8,2.7,0.6,2.3c8.3-2.5,15.9-6.4,23.1-11
		C257.2,120.6,256,118.6,254.7,119.4"/>
	<path class="st0" d="M271.7,105.1c-4.6,9.1-10.9,18.3-21.3,21.1c-1.5,0.4-0.8,2.7,0.6,2.3c11-3,17.8-12.5,22.7-22.2
		C274.4,104.9,272.4,103.7,271.7,105.1"/>
	<path class="st0" d="M279.4,111.7c-4.6,5.2-11.1,7.8-16.7,11.6c-1.3,0.9-0.1,2.9,1.2,2c5.8-3.9,12.4-6.6,17.2-12
		C282,112.2,280.4,110.5,279.4,111.7"/>
	<path class="st0" d="M273.7,130.8c-6-1.3-11.8-3.3-17.6-5.3c-1.4-0.5-2.1,1.8-0.6,2.3c5.8,2,11.6,3.9,17.6,5.3
		C274.6,133.4,275.2,131.1,273.7,130.8"/>
	<path class="st0" d="M259.2,139c-5.9-1.7-11.8-3.6-17.6-5.6c-1.4-0.5-2.1,1.8-0.6,2.3c5.8,2,11.7,4,17.6,5.6
		C260,141.7,260.7,139.4,259.2,139"/>
	<path class="st0" d="M167.4,117.3c-2.6,5.6-5.4,11-9.8,15.4c-1.1,1.1,0.6,2.8,1.7,1.7c4.6-4.5,7.5-10.1,10.2-15.9
		C170.1,117.1,168.1,115.9,167.4,117.3"/>
	<path class="st0" d="M152.3,144.1c-1.5-5.8-7.9-8.9-13.2-10.4c-1.5-0.4-2.1,1.9-0.6,2.3c4.4,1.2,10.3,3.8,11.5,8.7
		C150.4,146.2,152.7,145.6,152.3,144.1"/>
	<path class="st0" d="M124.4,121.5c0.6,3.7,0.7,7.2-1.3,10.5c-0.8,1.3,1.3,2.5,2,1.2c2.3-3.9,2.2-8,1.5-12.3
		C126.4,119.4,124.1,120,124.4,121.5"/>
	<path class="st0" d="M124.1,142.5c-1.9-3.5-4.3-6.6-6.8-9.6c-1-1.2-3,0.1-2,1.3c2.5,3,4.9,6.1,6.8,9.6
		C122.9,145.2,124.9,143.9,124.1,142.5"/>
	<path class="st0" d="M143.7,143.2c-2.6-3.5-5.7-6.3-9.5-8.4c-1.3-0.7-2.5,1.3-1.2,2c3.4,1.9,6.3,4.4,8.6,7.6
		C142.6,145.6,144.6,144.4,143.7,143.2"/>
	<path class="st0" d="M179.2,123.4c0.3-0.3,0.5-0.7,0.6-1.1c0.3-1.3-1.5-2.1-2.2-0.9c-0.3,0.6-0.4,1.3-0.5,2
		c-0.3,1.5-0.9,2.9-1.7,4.2c-1.5,2.6-3.8,4.7-6.5,5.9c-1.4,0.6-0.2,2.7,1.2,2c2.6-1.2,4.8-3.2,6.5-5.5c0.8-1.1,1.5-2.3,2-3.6
		c0.4-1.1,0.6-3.1,1-3.9c-0.7-0.3-1.4-0.6-2.2-0.9l0,0.1C176.6,122.9,178.3,124.6,179.2,123.4"/>
	<path class="st0" d="M220.4,142.1c-1.8-5.3-6.9-10.4-12.7-10.8c-1.5-0.1-1.5,2.3,0,2.4c4.7,0.3,9,4.8,10.4,9
		C218.6,144.2,220.9,143.6,220.4,142.1"/>
	<path class="st0" d="M278.4,131.6c-3.5-3.6-7.5-6.2-12.2-8c-1.4-0.5-2,1.8-0.6,2.3c4.3,1.6,7.9,4.1,11.1,7.4
		C277.7,134.3,279.4,132.6,278.4,131.6"/>
	<path class="st0" d="M286,113.2c-5.1,3.4-10.5,6.4-15.8,9.6c-1.3,0.8-0.1,2.8,1.2,2c5.3-3.2,10.7-6.2,15.8-9.6
		C288.5,114.4,287.3,112.4,286,113.2"/>
	<path class="st0" d="M273.8,135.2c-15.2-0.1-30.3-2.6-45.4-4.1c-1.5-0.2-1.5,2.2,0,2.4c15.1,1.6,30.1,4,45.4,4.1
		C275.3,137.6,275.3,135.3,273.8,135.2"/>
	<path class="st0" d="M255.2,141.5c-2.2,0.3-4.5,0.6-6.7,0.9c-1.5,0.2-0.9,2.5,0.6,2.3c2.2-0.3,4.5-0.6,6.7-0.9
		C257.3,143.6,256.7,141.3,255.2,141.5"/>
	<path class="st0" d="M251.6,145.2c-7.8-5.1-18.3-6.5-24.5-13.8c-1-1.2-2.7,0.5-1.7,1.7c6.4,7.5,17,8.9,25,14.1
		C251.6,148.1,252.8,146,251.6,145.2"/>
	<path class="st0" d="M245.8,152.1c-11.9-5.4-22-13.6-33.5-19.7c-1.3-0.7-2.6,1.3-1.2,2c11.5,6.1,21.6,14.4,33.5,19.7
		C246,154.7,247.2,152.7,245.8,152.1"/>
	<path class="st0" d="M220.3,153c-11.7-4.3-21.2-12.8-31.8-19.2c-1.3-0.8-2.5,1.3-1.2,2c10.8,6.5,20.4,15,32.3,19.4
		C221.1,155.9,221.8,153.6,220.3,153"/>
	<path class="st0" d="M134.5,149.8c-11.7-4.3-21.2-12.8-31.8-19.2c-1.3-0.8-2.5,1.3-1.2,2c10.8,6.5,20.4,15,32.3,19.4
		C135.3,152.6,136,150.3,134.5,149.8"/>
	<path class="st0" d="M225.5,114.8c-11.5,8.6-24.5,14.6-37.9,19.6c-1.4,0.5-0.8,2.8,0.6,2.3c13.6-5.1,26.8-11.2,38.5-19.8
		C228,116,226.8,113.9,225.5,114.8"/>
	<path class="st0" d="M184.5,154.5c-13-2-17.6-17.6-30.2-20.7c-1.5-0.4-2.1,1.9-0.6,2.3c12.4,3.1,17,18.7,30.2,20.7
		C185.4,157,186,154.7,184.5,154.5"/>
	<path class="st0" d="M218.9,145.6c-5.3-4.4-10.7-8.5-16.6-12.1c-1.3-0.8-2.5,1.3-1.2,2c5.7,3.4,11,7.5,16.1,11.7
		C218.4,148.3,220.1,146.6,218.9,145.6"/>
	<path class="st0" d="M253.5,115.1c-7.3,7.7-17.7,11-26.1,17.3c-1.2,0.9,0,3,1.2,2c8.5-6.4,19.1-9.8,26.6-17.6
		C256.2,115.7,254.5,114,253.5,115.1"/>
	<path class="st0" d="M187,149.2c-12.4-3.9-23.5-10.9-35.5-15.7c-1.4-0.6-2,1.7-0.6,2.3c12,4.8,23.1,11.8,35.5,15.7
		C187.8,151.9,188.5,149.6,187,149.2"/>
	<path class="st0" d="M136.7,113.1c-5.6,6.8-12.4,12.5-18.3,19.1c-1,1.1,0.7,2.8,1.7,1.7c5.9-6.6,12.6-12.3,18.3-19.1
		C139.4,113.6,137.7,111.9,136.7,113.1"/>
	<path class="st0" d="M149.5,155c-3.5-4.8-8.8-7.5-13.2-11.4c-4.3-3.9-7.5-8.9-12.9-11.5c-1.4-0.7-2.6,1.4-1.2,2
		c5.2,2.5,8.3,7.4,12.4,11.1c4.2,3.8,9.4,6.3,12.8,10.9C148.4,157.5,150.4,156.3,149.5,155"/>
	<path class="st0" d="M146.7,125.4c-3.3,2.7-7.3,4.5-11,6.6c-1.3,0.7-0.1,2.8,1.2,2c3.9-2.2,8-4.1,11.5-6.9
		C149.6,126.1,147.9,124.4,146.7,125.4"/>
	<path class="st0" d="M264.8,107.1c-1.9,6.8-6.1,12.5-10,18.3c-0.8,1.3,1.2,2.5,2,1.2c4-6,8.3-11.9,10.2-18.9
		C267.5,106.2,265.2,105.6,264.8,107.1"/>
	<path class="st0" d="M269,141.9c-3.5-6.7-10-11.1-16.3-14.9c-1.3-0.8-2.5,1.3-1.2,2c6,3.6,12.1,7.7,15.5,14
		C267.7,144.5,269.7,143.3,269,141.9"/>
	<path class="st0" d="M230.5,116.8c-4.8,4.7-8.4,10.4-13,15.2c-1.1,1.1,0.6,2.8,1.7,1.7c4.6-4.8,8.2-10.5,13-15.2
		C233.3,117.4,231.6,115.7,230.5,116.8"/>
	<path class="st0" d="M159.7,119.3c-2.7,5.7-6.8,10.3-11.3,14.6c-1.1,1.1,0.6,2.7,1.7,1.7c4.6-4.5,8.8-9.3,11.7-15.1
		C162.4,119.1,160.3,117.9,159.7,119.3"/>
	<path class="st0" d="M147.4,148.8c-1.5-4-2.9-8-4.6-11.9c-0.6-1.4-2.7-0.2-2,1.2c1.7,3.7,3,7.5,4.4,11.3
		C145.6,150.8,147.9,150.2,147.4,148.8"/>
	<path class="st0" d="M135.9,119.5c-1.6,4.8-3.9,9.2-6.9,13.2c-0.9,1.2,1.1,2.4,2,1.2c3.1-4.2,5.4-8.9,7.1-13.8
		C138.6,118.7,136.4,118.1,135.9,119.5"/>
	<path class="st0" d="M114.5,120.5c-2,4.1-3.9,8.2-7.1,11.4c-1.1,1.1,0.6,2.8,1.7,1.7c3.4-3.4,5.4-7.6,7.5-11.9
		C117.2,120.3,115.1,119.1,114.5,120.5"/>
	<path class="st0" d="M95.9,133.3c1.5,2,3,3.9,4.3,6c0.8,1.3,2.9,0.1,2-1.2c-1.3-2.1-2.8-4.1-4.3-6C97.1,130.9,95,132.1,95.9,133.3"
		/>
	<path class="st0" d="M281.7,120.4c-9.6,0.7-19.2,2.7-28.8,4.4c-14.8,2.5-29.7,5-44.6,6.7c-31.3,3.5-62.9,1.5-94.3-0.7
		c-11.3-0.8-22.6-1.8-33.9-2.8c-2.3-0.2-2.3,3.3,0,3.6c24.9,2.3,49.8,4.2,74.8,5.1c15.8,0.5,31.5,0.6,47.2-0.9
		c14.7-1.4,29.3-3.6,43.8-6.1c11.8-2,23.8-4.7,35.8-5.6C283.9,123.8,284,120.3,281.7,120.4"/>
	<g class="st1">
		<text transform="matrix(1 0 0 1 61.7805 232.33)" class="st2 st3">ROMANÍ</text>
	</g>
</g>
</svg>
